<svg width="24" viewBox="0 0 960 960" fill="none" xmlns="http://www.w3.org/2000/svg"><path d="M303.58 871.32c-26.822-2.364-53.826-9.001-79.376-17.639C148.738 827.95 108.186 772.76 99.73 694.747c-6-55.463-8.91-111.29-12.274-167.117C84.09 472.258 80 416.886 80 361.513c0-47.098 5.637-94.196 24.458-138.385 21.276-49.735 58.1-83.286 108.108-102.743 40.006-15.548 82.104-20.64 124.292-25.55 80.922-9.274 162.026-12.638 243.311-7.274 63.919 4.183 127.475 11.73 186.575 38.37 39.642 17.912 67.738 47.735 81.74 89.923 15.639 46.917 21.458 95.379 25.459 144.295 6.091 75.285 7.728 150.66 4.273 226.127-2.364 50.462-10.547 99.834-30.641 146.204-31.46 72.648-83.104 123.02-163.935 136.113-28.186 4.546-57.009 6.092-85.559 6.819-42.37 1.091-84.831.273-127.292.273zm189.667-58.191c59.463-2.636 112.381-4.455 165.298-7.637 41.552-2.455 75.83-20.185 101.925-53.281 35.824-45.462 47.553-99.198 51.008-154.752 5.637-90.741 2.819-181.392-7.274-271.77-3.637-32.641-8.637-64.737-27.186-93.105-4.91-7.547-8.819-15.821-13.365-23.64-11.821-20.276-27.187-38.37-50.008-44.553-50.554-13.82-102.653-20.548-154.934-20.457-58.009.091-116.2 1.364-173.936 6.182-43.552 3.637-86.923 12.093-129.657 21.549-53.008 11.729-84.013 47.826-97.56 99.289-14.094 53.644-14.003 108.471-10.729 163.389 3.182 52.463 7.364 104.925 11.274 157.388 2.546 33.278 4.274 66.647 8.456 99.743 6.546 50.644 33.46 86.286 83.559 100.743 23.912 6.91 48.734 13.002 73.375 14.548 58.645 3.728 117.382 4.546 169.754 6.364" fill="#b560ff"/><path d="M493.247 813.13c-52.372-1.818-111.108-2.637-169.754-6.364-24.731-1.546-49.462-7.729-73.375-14.548-50.099-14.457-77.012-50.099-83.559-100.743-4.273-33.005-6.001-66.465-8.456-99.743-4-52.463-8.092-104.835-11.274-157.388-3.273-54.827-3.364-109.654 10.729-163.39 13.548-51.371 44.552-87.559 97.561-99.288 42.734-9.456 86.104-17.912 129.656-21.549 57.737-4.91 115.928-6.092 173.937-6.183 52.372-.09 104.38 6.729 154.933 20.458 22.822 6.274 38.188 24.277 50.008 44.553 4.546 7.819 8.456 16.093 13.366 23.64 18.548 28.277 23.549 60.464 27.186 93.105 10.092 90.378 12.911 181.029 7.274 271.77-3.455 55.554-15.185 109.29-51.008 154.752-26.095 33.096-60.283 50.826-101.925 53.281-52.918 3.091-105.835 4.91-165.299 7.637M384.412 652.832c2.909 5.183 5.364 13.275 10.729 18.185 12.729 11.82 32.186 6.001 39.915-11.82 5.728-13.275 10.092-27.186 14.184-41.097 31.641-107.835 63.101-215.761 94.651-323.687 5.183-17.73-2.818-34.46-19.094-39.461-15.911-4.91-32.55 5.001-37.551 22.64-2.273 8.001-3.91 16.184-6.183 24.276-28.186 100.925-56.372 201.85-84.468 302.866-4.182 15.002-7.637 30.186-12.183 48.098M249.209 460.984c39.188-31.368 76.102-61.1 113.199-90.65 12.366-9.82 16.457-21.64 10.547-33.006-5.91-11.456-19.821-16.184-34.005-10.274-8.91 3.728-17.821 8.547-25.368 14.548-38.824 31.005-77.284 62.373-115.745 93.924-9.638 7.91-14.548 19.184-11.184 31.095 2.819 10.184 7.456 20.913 14.275 28.732 31.733 36.642 72.375 62.374 112.382 88.65 16.184 10.638 37.187.91 41.915-16.911 3.637-13.912-1.636-25.004-12.638-33.369-17.276-13.184-35.006-25.913-52.19-39.188-13.457-10.456-26.368-21.458-41.188-33.551m454.707-.545c-4.091 3.546-6.819 6.364-10.001 8.728-37.097 27.823-74.285 55.554-111.472 83.377-15.003 11.274-18.912 27.459-9.911 40.734 9.365 13.638 27.277 16.548 42.188 4.637 46.644-37.461 92.924-75.376 138.568-114.018 18.184-15.366 16.82-33.915-1.728-49.008-20.549-16.73-41.37-33.096-62.373-49.189-17.003-13.002-34.46-25.368-51.827-37.915-3.818-2.728-7.819-5.365-12.001-7.365-13.003-6.001-26.732-2.182-33.551 8.91-6.547 10.729-4.274 24.55 6.728 33.096 14.639 11.366 30.005 21.64 44.825 32.733 20.094 14.729 39.916 29.823 60.555 45.28"/><path d="M384.414 652.83c4.546-18.003 8.001-33.187 12.184-48.098 28.095-100.925 56.372-201.85 84.468-302.866 2.273-8.001 3.909-16.275 6.182-24.277 5.001-17.639 21.64-27.549 37.552-22.639 16.275 5 24.276 21.73 19.094 39.46-31.551 107.926-63.01 215.852-94.652 323.687-4.091 13.912-8.455 27.823-14.184 41.098-7.637 17.821-27.186 23.549-39.915 11.82-5.274-4.91-7.728-12.911-10.729-18.185M249.212 460.985c14.729 12.092 27.731 23.094 41.097 33.459 17.185 13.275 34.915 26.004 52.19 39.188 11.002 8.365 16.366 19.549 12.638 33.369-4.728 17.821-25.731 27.55-41.915 16.912-40.006-26.277-80.649-52.008-112.381-88.65-6.82-7.911-11.366-18.549-14.275-28.732-3.365-12.002 1.545-23.186 11.183-31.096 38.37-31.55 76.921-62.919 115.746-93.924 7.546-6.001 16.457-10.82 25.367-14.547 14.184-5.91 28.096-1.182 34.006 10.274s1.818 23.185-10.548 33.005c-37.005 29.641-73.92 59.373-113.108 90.742m454.701-.548c-20.639-15.456-40.461-30.55-60.555-45.37-14.911-11.002-30.277-21.367-44.825-32.733-11.001-8.546-13.275-22.367-6.728-33.096 6.819-11.092 20.549-14.911 33.551-8.91 4.273 2 8.183 4.637 12.002 7.365 17.366 12.547 34.823 24.913 51.826 37.915 21.003 16.093 41.825 32.459 62.373 49.189 18.549 15.093 19.912 33.642 1.728 49.008-45.644 38.642-92.015 76.557-138.567 114.018-14.821 11.911-32.824 9.001-42.189-4.637-9.092-13.275-5.182-29.46 9.911-40.734a50950 50950 0 0 0 111.472-83.377c3.182-2.273 6.001-5.092 10.001-8.638" fill="#b560ff"/></svg>